# xmcd CD database file
#
# Track frame offsets:
#	150
#	50859
#	82256
#	117270
#	136763
#	159138
#
# Disc length: 2819 seconds
#
# Revision: 1
# Processed by: cddbd v1.5.2PL0 Copyright (c) Steve Scherf et al.
# Submitted via: CDex 1.70beta2
#
DISCID=4a0b0106
DTITLE=Schiller - Atemlose Klangwelten
DYEAR=2010
DGENRE=New Age
TTITLE0=Klangwelt Eins
TTITLE1=Klangwelt Zwei
TTITLE2=Klangwelt Drei
TTITLE3=Klangwelt Vier
TTITLE4=Klangwelt Fünf
TTITLE5=Klangwelt Sechs
EXTD=YEAR: 2010
EXTT0=
EXTT1=
EXTT2=
EXTT3=
EXTT4=
EXTT5=
PLAYORDER=
